<svg height="512.001pt" viewBox="0 0 512.001 512.001" width="512.001pt" xmlns="http://www.w3.org/2000/svg"><path d="m437.019531 74.980469c-48.351562-48.351563-112.640625-74.980469-181.019531-74.980469-53.925781 0-105.515625 16.582031-149.191406 47.957031-4.488282 3.222657-5.511719 9.472657-2.289063 13.957031 3.222657 4.484376 9.472657 5.511719 13.957031 2.289063 40.253907-28.917969 87.808594-44.203125 137.523438-44.203125 130.128906 0 236 105.871094 236 236 0 130.132812-105.871094 236-236 236-130.132812 0-236-105.871094-236-236 0-49.714844 15.28125-97.269531 44.195312-137.515625 3.222657-4.488281 2.199219-10.734375-2.285156-13.957031s-10.734375-2.199219-13.957031 2.285156c-31.371094 43.671875-47.953125 95.257812-47.953125 149.1875 0 68.378906 26.628906 132.667969 74.980469 181.019531 48.351562 48.355469 112.640625 74.980469 181.019531 74.980469 68.382812 0 132.667969-26.625 181.019531-74.980469 48.351563-48.351562 74.980469-112.636719 74.980469-181.019531 0-68.378906-26.628906-132.667969-74.980469-181.019531zm0 0"/><path d="m421.613281 378.925781c4.585938 3.078125 10.800781 1.855469 13.875-2.734375 23.886719-35.601562 36.511719-77.164062 36.511719-120.191406 0-57.695312-22.46875-111.9375-63.265625-152.734375s-95.039063-63.265625-152.734375-63.265625-111.9375 22.46875-152.734375 63.265625-63.265625 95.039063-63.265625 152.734375 22.46875 111.9375 63.265625 152.734375 95.039063 63.265625 152.734375 63.265625c43.027344 0 84.585938-12.625 120.1875-36.507812 4.585938-3.078126 5.808594-9.289063 2.730469-13.875-3.074219-4.585938-9.285157-5.808594-13.875-2.734376-32.289063 21.667969-69.996094 33.117188-109.042969 33.117188-108.074219 0-196-87.925781-196-196s87.925781-196 196-196 196 87.925781 196 196c0 39.046875-11.453125 76.753906-33.121094 109.050781-3.074218 4.585938-1.851562 10.796875 2.734375 13.875zm0 0"/><path d="m214.375 365.996094c5.988281 0 12.324219-.316406 18.914062-.644532 7.320313-.363281 14.890626-.742187 22.710938-.742187s15.390625.378906 22.710938.742187c23.121093 1.152344 43.09375 2.148438 55.945312-10.082031 7.699219-7.328125 11.445312-18.199219 11.445312-33.238281 0-49.683594-40.421874-90.105469-90.101562-90.105469-49.683594 0-90.101562 40.421875-90.101562 90.105469 0 15.039062 3.742187 25.910156 11.441406 33.238281 9.191406 8.742188 22.019531 10.726563 37.035156 10.726563zm41.625-114.070313c38.65625 0 70.101562 31.449219 70.101562 70.105469 0 9.136719-1.757812 15.445312-5.230468 18.75-6.640625 6.3125-22.640625 5.519531-41.164063 4.597656-7.566406-.378906-15.386719-.769531-23.707031-.769531s-16.140625.390625-23.707031.769531c-18.527344.921875-34.523438 1.71875-41.164063-4.597656-3.472656-3.304688-5.230468-9.613281-5.230468-18.75 0-38.65625 31.445312-70.105469 70.101562-70.105469zm0 0"/><path d="m290.777344 183.269531c0-20.550781-15.601563-37.269531-34.777344-37.269531s-34.773438 16.71875-34.773438 37.269531 15.597657 37.269531 34.773438 37.269531c19.175781.003907 34.777344-16.71875 34.777344-37.269531zm-49.550782 0c0-9.523437 6.628907-17.269531 14.773438-17.269531 8.148438 0 14.777344 7.746094 14.777344 17.269531 0 9.523438-6.628906 17.269531-14.777344 17.269531-8.144531 0-14.773438-7.746093-14.773438-17.269531zm0 0"/><path d="m131.484375 202.96875c-2.003906 9.234375-.417969 18.984375 4.46875 27.449219 4.886719 8.464843 12.539063 14.714843 21.539063 17.597656 3.566406 1.140625 7.179687 1.707031 10.742187 1.707031 5.765625 0 11.398437-1.484375 16.46875-4.414062 8.203125-4.734375 13.867187-12.625 15.953125-22.214844 2.003906-9.234375.417969-18.984375-4.46875-27.449219-10.277344-17.800781-32.148438-24.480469-48.753906-14.890625-8.203125 4.734375-13.867188 12.625-15.949219 22.214844zm19.542969 4.242188c.875-4.007813 3.148437-7.253907 6.40625-9.136719 2.027344-1.167969 4.261718-1.722657 6.535156-1.722657 5.640625 0 11.5 3.414063 14.898438 9.292969 2.394531 4.148438 3.191406 8.839844 2.242187 13.203125-.871094 4.011719-3.144531 7.257813-6.40625 9.140625-3.257813 1.882813-7.207031 2.230469-11.117187.976563-4.253907-1.359375-7.914063-4.394532-10.3125-8.546875-2.394532-4.152344-3.191407-8.839844-2.246094-13.207031zm0 0"/><path d="m376.046875 230.417969c4.886719-8.46875 6.476563-18.214844 4.46875-27.453125-2.082031-9.585938-7.746094-17.476563-15.949219-22.210938-8.203125-4.738281-17.867187-5.699218-27.214844-2.707031-9 2.878906-16.648437 9.128906-21.535156 17.59375-4.890625 8.46875-6.476562 18.214844-4.46875 27.453125 2.082032 9.585938 7.746094 17.476562 15.949219 22.210938 5.144531 2.972656 10.796875 4.382812 16.453125 4.382812 12.589844 0 25.207031-6.988281 32.296875-19.269531zm-17.320313-10c-4.761718 8.246093-14.375 11.640625-21.429687 7.570312-3.261719-1.882812-5.535156-5.128906-6.40625-9.140625-.949219-4.363281-.152344-9.054687 2.246094-13.207031 2.394531-4.148437 6.058593-7.183594 10.3125-8.546875 1.542969-.492188 3.089843-.738281 4.597656-.738281 2.320313 0 4.546875.578125 6.519531 1.71875 3.261719 1.878906 5.535156 5.125 6.40625 9.136719.945313 4.367187.148438 9.054687-2.246094 13.207031zm0 0"/><path d="m82.042969 92.054688c2.722656 0 5.433593-1.105469 7.40625-3.277344 3.714843-4.085938 3.414062-10.410156-.671875-14.125-4.085938-3.714844-10.410156-3.414063-14.125.671875l-.003906.007812c-3.714844 4.085938-3.414063 10.40625.671874 14.121094 1.917969 1.742187 4.324219 2.601563 6.722657 2.601563zm0 0"/><path d="m394.265625 394.9375-.003906.003906c-3.714844 4.085938-3.414063 10.410156.671875 14.125 1.917968 1.742188 4.324218 2.601563 6.722656 2.601563 2.722656 0 5.433594-1.105469 7.40625-3.277344 3.714844-4.085937 3.414062-10.410156-.671875-14.125s-10.410156-3.414063-14.125.671875zm0 0"/></svg>